<?xml version="1.0" encoding="utf-8"?>
<!-- Generator: Adobe Illustrator 16.0.0, SVG Export Plug-In . SVG Version: 6.00 Build 0)  -->
<!DOCTYPE svg PUBLIC "-//W3C//DTD SVG 1.1//EN" "http://www.w3.org/Graphics/SVG/1.1/DTD/svg11.dtd">
<svg version="1.1" id="圖層_1" xmlns="http://www.w3.org/2000/svg" xmlns:xlink="http://www.w3.org/1999/xlink" x="0px" y="0px"
	 width="279px" height="575.669px" viewBox="0 0 279 575.669" enable-background="new 0 0 279 575.669" xml:space="preserve">
<path fill="#E71F19" d="M266,10.5c0,5.799-4.701,10.5-10.5,10.5H23.5C17.701,21,13,16.299,13,10.5l0,0C13,4.701,17.701,0,23.5,0
	H255.5C261.299,0,266,4.701,266,10.5L266,10.5z"/>
<path fill="#E71F19" d="M263.5,565.169c0,5.799-4.701,10.5-10.5,10.5H21c-5.799,0-10.5-4.701-10.5-10.5l0,0
	c0-5.799,4.701-10.5,10.5-10.5h232C258.799,554.669,263.5,559.371,263.5,565.169L263.5,565.169z"/>
<path fill="#E71F19" d="M266,290.169c0,5.799-4.701,10.5-10.5,10.5h-232c-5.799,0-10.5-4.701-10.5-10.5l0,0
	c0-5.799,4.701-10.5,10.5-10.5h232C261.299,279.669,266,284.371,266,290.169L266,290.169z"/>
<path fill="#E71F19" d="M10.5,554.669c-5.799,0-10.5-4.701-10.5-10.5l0-232c0-5.799,4.701-10.5,10.5-10.5l0,0
	c5.799,0,10.5,4.701,10.5,10.5l0,232C21,549.968,16.299,554.669,10.5,554.669L10.5,554.669z"/>
<path fill="#E71F19" d="M268.5,554.669c-5.799,0-10.5-4.701-10.5-10.5v-232c0-5.799,4.701-10.5,10.5-10.5l0,0
	c5.799,0,10.5,4.701,10.5,10.5v232C279,549.968,274.299,554.669,268.5,554.669L268.5,554.669z"/>
<path fill="#E71F19" d="M10.5,279.669c-5.799,0-10.5-4.701-10.5-10.5l0-232c0-5.799,4.701-10.5,10.5-10.5l0,0
	c5.799,0,10.5,4.701,10.5,10.5l0,232C21,274.968,16.299,279.669,10.5,279.669L10.5,279.669z"/>
<path fill="#E71F19" d="M268.5,274c-5.799,0-10.5-4.701-10.5-10.5v-232c0-5.799,4.701-10.5,10.5-10.5l0,0
	c5.799,0,10.5,4.701,10.5,10.5v232C279,269.299,274.299,274,268.5,274L268.5,274z"/>
<circle fill="#E71F19" cx="139.5" cy="142.169" r="21.26"/>
<path fill="#E71F19" d="M268.5,554.669c-5.799,0-10.5-4.701-10.5-10.5v-232c0-5.799,4.701-10.5,10.5-10.5l0,0
	c5.799,0,10.5,4.701,10.5,10.5v232C279,549.968,274.299,554.669,268.5,554.669L268.5,554.669z"/>
<circle fill="#E71F19" cx="137" cy="428.169" r="21.26"/>
</svg>
